<?xml version="1.0" standalone="no"?>
<!DOCTYPE svg PUBLIC "-//W3C//DTD SVG 20010904//EN"
 "http://www.w3.org/TR/2001/REC-SVG-20010904/DTD/svg10.dtd">
<svg version="1.0" xmlns="http://www.w3.org/2000/svg"
 width="900.000000pt" height="900.000000pt" viewBox="0 0 900.000000 900.000000"
 preserveAspectRatio="xMidYMid meet">
<metadata>
Created by potrace 1.10, written by Peter Selinger 2001-2011
</metadata>
<g transform="translate(0.000000,900.000000) scale(0.100000,-0.100000)"
fill="#000000" stroke="none">
<path d="M4395 8139 c-21 -10 -44 -15 -51 -12 -8 3 -25 -5 -40 -16 -15 -12
-33 -21 -41 -21 -18 0 -86 -52 -126 -95 -29 -31 -97 -129 -97 -140 0 -3 -7
-22 -16 -43 -34 -76 -38 -309 -7 -367 6 -11 17 -33 24 -50 18 -39 80 -124 110
-151 32 -28 120 -84 132 -84 5 0 23 -6 40 -14 18 -7 69 -22 113 -31 78 -17 86
-17 160 0 112 24 224 67 224 84 0 4 12 14 27 22 29 16 121 128 142 174 7 17
20 45 30 64 24 50 23 296 -2 331 -9 13 -17 30 -17 38 0 7 -24 50 -54 95 -59
90 -128 154 -182 168 -18 6 -34 14 -34 19 0 5 -17 12 -37 16 -21 4 -46 11 -56
16 -34 18 -200 15 -242 -3z m267 -110 c117 -34 199 -117 252 -252 39 -101 39
-214 1 -302 -8 -16 -16 -40 -20 -52 -12 -44 -151 -167 -201 -178 -16 -4 -43
-13 -60 -21 -37 -16 -191 -27 -199 -13 -4 5 -14 9 -23 9 -10 0 -34 9 -55 19
-20 10 -48 22 -62 25 -28 7 -155 125 -155 144 0 7 -4 20 -9 30 -25 47 -42 95
-38 106 3 7 1 35 -5 62 -8 41 -5 62 13 124 13 41 28 82 35 90 6 8 21 33 32 55
33 65 156 154 214 155 13 1 34 7 47 14 34 19 144 12 233 -15z"/>
<path d="M2150 7099 c-182 -43 -275 -107 -367 -254 -40 -63 -55 -118 -70 -244
-6 -57 9 -148 33 -194 8 -16 14 -32 14 -37 0 -11 58 -98 91 -137 35 -41 147
-123 169 -123 10 0 23 -6 29 -14 6 -7 28 -16 49 -19 20 -4 60 -11 87 -17 124
-27 277 24 399 134 73 64 117 126 151 209 19 47 22 72 21 179 -2 101 -5 130
-19 152 -10 15 -16 30 -13 35 9 13 -81 139 -132 186 -86 79 -126 101 -251 139
-56 17 -133 19 -191 5z m203 -98 c6 -6 17 -11 25 -11 21 0 131 -68 170 -104
19 -17 53 -67 75 -111 l42 -80 0 -115 c-1 -112 -2 -117 -38 -190 -20 -41 -51
-91 -69 -111 -43 -48 -150 -109 -191 -109 -18 -1 -43 -7 -57 -15 -62 -35 -193
-9 -307 62 -95 59 -134 111 -193 261 -9 24 -11 60 -6 129 7 99 21 148 49 172
10 7 17 22 17 32 0 45 141 159 225 182 92 26 236 30 258 8z"/>
<path d="M4285 6740 c-60 -4 -123 -12 -140 -18 -16 -6 -50 -13 -75 -16 -25 -2
-63 -9 -85 -15 -22 -6 -55 -8 -73 -5 -22 4 -39 1 -50 -8 -15 -13 -50 -25 -123
-43 -9 -2 -37 -13 -62 -24 -25 -12 -48 -21 -52 -21 -9 0 -207 -100 -260 -131
-27 -16 -68 -39 -90 -50 -22 -10 -53 -29 -70 -42 -16 -12 -63 -46 -102 -75
-40 -30 -76 -59 -80 -67 -5 -7 -31 -30 -59 -51 -27 -22 -79 -70 -113 -109 -35
-38 -89 -97 -120 -131 -31 -33 -72 -85 -92 -115 -72 -108 -99 -153 -99 -162 0
-6 -7 -18 -15 -27 -35 -39 -142 -254 -166 -335 -6 -22 -15 -47 -20 -56 -4 -9
-11 -33 -14 -53 -4 -20 -11 -39 -16 -42 -5 -3 -9 -20 -9 -37 -1 -18 -7 -43
-15 -57 -8 -14 -15 -41 -15 -60 0 -19 -7 -46 -15 -60 -8 -14 -14 -43 -15 -66
0 -22 -7 -63 -15 -90 -21 -70 -21 -525 0 -604 8 -30 15 -72 15 -93 0 -21 7
-54 15 -74 8 -19 15 -50 15 -67 0 -17 7 -40 15 -50 8 -11 15 -32 15 -47 0 -15
5 -31 10 -34 6 -3 10 -16 10 -28 0 -12 7 -35 15 -51 8 -15 15 -35 15 -44 0
-14 22 -66 56 -135 8 -16 14 -34 14 -42 0 -7 7 -18 15 -25 8 -7 15 -18 15 -25
0 -7 15 -36 33 -64 17 -28 43 -69 57 -92 90 -151 229 -321 355 -437 125 -114
279 -241 318 -262 17 -9 61 -34 97 -55 130 -76 145 -85 160 -91 8 -3 22 -10
30 -15 8 -5 22 -12 30 -15 8 -3 28 -12 43 -20 16 -7 37 -14 47 -14 9 0 23 -6
29 -14 7 -8 27 -18 44 -22 17 -3 38 -10 47 -14 29 -14 85 -32 125 -40 45 -10
106 -25 180 -45 28 -8 73 -16 100 -19 28 -3 70 -10 95 -15 25 -6 149 -10 275
-11 230 0 285 5 465 46 36 8 72 14 81 14 9 0 30 7 45 15 16 8 40 15 54 15 14
0 34 7 44 15 11 8 30 15 42 15 13 0 26 4 29 10 3 5 16 10 28 10 12 1 40 9 62
20 22 11 45 19 51 20 13 0 182 87 204 104 8 7 31 20 50 30 19 9 50 28 69 41
18 14 37 22 42 20 4 -3 10 -1 14 4 3 5 38 31 78 58 87 58 128 93 277 243 139
139 197 204 223 248 10 17 23 32 28 32 5 0 14 12 20 28 6 15 26 50 45 79 19
28 34 54 34 57 0 3 13 24 29 48 16 24 43 75 61 113 18 39 41 87 51 107 11 20
19 44 19 53 0 8 4 23 9 33 14 28 32 85 41 124 4 21 12 43 17 50 6 7 13 29 16
48 3 19 10 53 16 75 24 95 40 185 47 260 4 44 9 96 11 115 12 98 14 218 4 250
-6 19 -15 81 -21 137 -9 98 -16 138 -40 233 -6 25 -15 61 -20 80 -11 46 -29
98 -46 133 -8 16 -14 37 -14 47 0 9 -6 23 -14 29 -8 7 -12 20 -9 31 3 11 -4
31 -16 46 -12 15 -21 33 -21 40 0 13 -50 129 -70 164 -48 84 -116 187 -127
193 -7 4 -13 13 -13 19 0 21 -155 215 -244 305 -50 51 -129 123 -176 160 -47
36 -92 73 -100 80 -33 29 -107 80 -140 96 -19 10 -51 27 -70 39 -84 50 -301
158 -319 158 -10 0 -24 7 -31 15 -7 9 -20 13 -27 10 -8 -3 -24 2 -36 10 -12 8
-35 15 -52 15 -16 0 -39 7 -49 15 -11 8 -33 15 -48 15 -16 0 -54 6 -86 14
-163 41 -212 47 -422 50 -118 3 -264 1 -325 -4z m500 -86 c164 -18 241 -32
325 -62 30 -11 96 -33 145 -48 50 -16 104 -36 120 -46 17 -10 39 -18 50 -18
19 -1 43 -12 147 -69 90 -49 315 -199 373 -249 92 -79 110 -97 170 -166 33
-37 69 -78 81 -90 60 -61 198 -250 225 -309 6 -12 24 -44 40 -72 16 -27 38
-70 49 -95 11 -25 27 -57 35 -72 15 -26 79 -209 96 -273 4 -16 19 -58 33 -91
22 -52 28 -88 38 -235 12 -185 14 -333 6 -439 -3 -36 -8 -105 -12 -155 -4 -49
-14 -115 -22 -145 -24 -87 -58 -194 -66 -205 -3 -6 -18 -46 -32 -89 -15 -44
-30 -84 -35 -90 -5 -6 -21 -46 -37 -89 -25 -73 -128 -243 -212 -352 -17 -22
-46 -59 -64 -83 -50 -65 -194 -211 -263 -265 -33 -26 -89 -76 -125 -110 -81
-77 -179 -157 -192 -157 -18 0 0 72 32 136 16 32 30 72 30 89 0 16 11 52 24
80 16 33 33 105 50 212 19 126 30 170 48 193 12 17 28 28 35 26 17 -7 124 121
176 209 22 39 48 79 58 90 9 11 20 31 24 45 10 34 85 162 104 177 13 11 12 13
-8 13 -26 0 -27 -4 14 105 40 105 53 158 65 264 7 53 14 99 16 102 2 4 6 63 9
131 4 125 -21 361 -43 405 -5 10 -12 35 -16 56 -7 36 -40 140 -84 267 -19 54
-53 120 -78 150 -6 8 -26 42 -44 75 -17 33 -37 65 -43 70 -7 6 -25 30 -42 55
-73 108 -265 310 -296 310 -5 0 -24 16 -41 36 -17 19 -45 42 -62 51 -17 9 -54
34 -83 57 -94 74 -126 96 -140 96 -8 0 -50 18 -95 40 -44 22 -85 37 -90 34 -5
-3 -17 0 -26 8 -24 20 -144 63 -232 83 -41 9 -94 21 -118 27 -47 12 -396 16
-507 6 -38 -3 -95 -13 -125 -22 -30 -9 -63 -16 -74 -16 -24 0 -78 -16 -134
-41 -23 -10 -60 -22 -82 -25 -21 -4 -47 -15 -56 -25 -9 -11 -21 -19 -25 -19
-20 0 -166 -75 -187 -95 -13 -13 -42 -32 -65 -43 -23 -11 -60 -38 -81 -61 -22
-22 -43 -38 -48 -35 -12 7 -10 72 3 95 5 11 9 28 7 37 -3 17 -58 -76 -58 -98
0 -6 -20 -31 -45 -56 -24 -25 -47 -53 -50 -63 -3 -10 -16 -23 -29 -30 -13 -7
-41 -36 -62 -64 -22 -29 -53 -67 -70 -86 -52 -57 -62 -69 -90 -111 -15 -22
-30 -40 -34 -40 -5 0 -17 -15 -29 -32 -11 -18 -30 -45 -42 -59 -16 -21 -19
-31 -11 -45 8 -15 1 -38 -35 -109 -41 -83 -92 -207 -114 -280 -5 -16 -13 -39
-18 -50 -44 -92 -60 -526 -27 -720 10 -55 23 -104 30 -110 7 -5 15 -19 18 -30
34 -116 67 -237 73 -265 7 -36 40 -140 55 -175 5 -11 11 -33 15 -50 3 -16 12
-43 20 -60 8 -16 22 -49 31 -72 22 -52 37 -56 28 -8 -10 57 16 43 66 -32 24
-38 71 -94 105 -125 80 -76 182 -166 228 -203 20 -16 54 -45 75 -63 20 -19 64
-47 97 -64 33 -16 78 -41 100 -54 22 -13 52 -24 66 -24 15 0 32 -6 38 -14 7
-8 27 -18 44 -21 18 -4 57 -18 87 -32 30 -15 71 -30 90 -35 19 -5 53 -14 75
-19 21 -6 44 -14 50 -19 6 -5 17 -5 24 -1 7 5 29 4 50 -1 92 -25 458 -36 597
-19 78 10 186 36 247 60 16 6 40 11 54 11 15 0 34 6 42 13 9 7 43 21 76 32 33
10 76 29 95 42 19 13 47 23 62 23 18 0 36 10 50 25 12 14 25 25 30 25 4 0 45
24 91 53 80 51 193 117 201 117 11 0 15 -70 5 -100 -6 -19 -15 -55 -19 -80
-25 -137 -51 -195 -139 -311 -11 -14 -39 -31 -63 -38 -24 -7 -58 -26 -75 -42
-18 -15 -51 -33 -74 -39 -23 -7 -58 -20 -78 -31 -20 -10 -48 -19 -63 -19 -16
0 -28 -4 -28 -9 0 -10 -116 -47 -195 -61 -33 -6 -80 -15 -105 -20 -25 -6 -86
-17 -137 -25 -166 -27 -577 -2 -738 45 -16 5 -57 17 -90 26 -33 9 -67 23 -76
31 -9 7 -38 18 -65 23 -61 11 -124 33 -124 42 0 4 -18 12 -41 18 -22 6 -50 22
-61 36 -12 13 -29 24 -39 24 -9 0 -31 14 -49 30 -30 28 -69 45 -42 18 7 -7 12
-16 12 -21 0 -17 -48 3 -111 46 -34 23 -71 49 -83 57 -242 166 -538 483 -641
685 -14 28 -39 73 -55 100 -17 28 -37 66 -46 85 -9 19 -26 56 -39 81 -78 154
-175 556 -175 727 0 90 28 292 44 311 8 11 8 13 -1 8 -15 -9 -29 35 -17 54 4
7 9 46 11 87 3 71 28 166 84 327 12 33 27 80 35 105 28 95 56 165 75 188 10
14 19 32 19 41 0 9 6 26 13 37 42 73 212 305 233 317 8 4 14 12 14 17 0 20 71
106 127 156 32 28 101 89 153 135 109 97 143 122 294 214 61 36 116 63 124 60
8 -3 25 2 38 10 13 9 24 13 24 9 0 -3 16 4 35 16 45 28 63 22 36 -12 -12 -14
-21 -33 -21 -42 0 -8 -6 -19 -13 -23 -8 -4 -19 -24 -25 -43 l-12 -35 40 45
c21 25 59 70 82 99 25 32 80 80 131 115 82 56 88 59 104 43 14 -14 19 -14 32
-3 9 7 62 18 119 24 57 7 111 16 121 22 10 5 67 12 127 15 60 4 110 7 111 9 6
6 227 -7 358 -20z m-133 -455 c62 1 113 -4 140 -14 24 -8 60 -15 81 -15 21 0
48 -5 60 -12 12 -6 38 -15 57 -19 65 -13 118 -35 270 -110 132 -64 146 -72
168 -92 10 -10 22 -17 26 -17 12 0 94 -62 190 -143 91 -77 265 -267 290 -316
9 -17 22 -34 28 -38 7 -4 20 -21 29 -38 22 -40 115 -226 123 -245 3 -8 10 -22
14 -30 27 -49 42 -84 42 -101 0 -11 7 -33 16 -50 8 -16 12 -38 9 -49 -3 -10 4
-36 15 -57 13 -25 20 -56 19 -84 -1 -24 3 -78 9 -119 15 -97 15 -213 0 -320
-6 -47 -12 -110 -13 -140 -1 -30 -7 -65 -13 -77 -7 -12 -12 -34 -12 -50 0 -15
-7 -41 -15 -57 -8 -15 -15 -41 -15 -56 0 -15 -7 -33 -15 -40 -8 -7 -15 -21
-15 -31 0 -11 -4 -27 -10 -37 -5 -9 -15 -28 -20 -42 -6 -14 -16 -34 -23 -45
-7 -11 -29 -50 -49 -86 -21 -36 -44 -71 -52 -78 -8 -6 -17 -24 -21 -38 -3 -15
-18 -42 -33 -59 -15 -18 -40 -51 -57 -74 -43 -58 -162 -180 -215 -220 -25 -18
-49 -39 -55 -45 -14 -16 -174 -135 -182 -135 -3 0 -49 -21 -102 -47 -53 -26
-112 -53 -131 -61 -19 -8 -48 -21 -63 -28 -16 -8 -35 -14 -42 -14 -7 0 -26 -6
-42 -14 -45 -22 -128 -46 -159 -46 -16 0 -49 -7 -74 -16 -66 -24 -524 -24
-590 0 -25 9 -61 16 -80 16 -19 0 -46 7 -60 15 -14 8 -41 15 -60 15 -19 0 -44
7 -54 15 -11 8 -28 15 -37 15 -10 0 -30 7 -46 15 -34 17 -162 75 -166 75 -2 0
-42 21 -88 48 -173 97 -330 232 -460 396 -44 55 -88 110 -97 121 -9 11 -25 36
-35 55 -9 19 -37 73 -62 120 -24 47 -44 92 -45 101 0 9 -7 22 -15 29 -8 7 -15
22 -15 34 0 12 -7 31 -15 42 -8 10 -15 28 -15 39 0 11 -7 29 -15 39 -8 11 -15
34 -15 50 0 17 -7 40 -15 50 -8 11 -15 36 -15 56 0 20 -6 50 -14 66 -20 41
-20 494 0 543 8 18 14 52 14 75 1 22 7 52 15 66 8 14 15 39 15 55 0 17 7 39
15 49 8 11 15 28 15 37 0 10 6 30 14 46 7 15 28 60 45 98 54 117 65 139 89
175 13 19 28 45 33 58 5 12 13 22 18 22 5 0 12 8 16 19 3 10 16 30 28 43 12
13 44 51 70 84 61 75 215 234 226 234 5 0 29 16 52 36 24 20 54 40 66 45 13 5
23 13 23 18 0 10 56 41 74 41 6 0 17 9 24 20 7 11 20 20 30 20 10 0 22 4 27 9
6 5 55 28 109 51 54 23 106 45 115 50 45 22 174 60 236 69 28 4 62 13 77 19
14 6 81 11 148 11 67 0 125 3 128 6 3 3 13 3 21 0 9 -4 60 -6 113 -6z"/>
<path d="M3537 6293 c-10 -9 -8 -33 2 -33 5 0 11 9 14 20 5 20 -3 26 -16 13z"/>
<path d="M3477 6177 c-11 -29 -9 -43 4 -30 6 6 9 19 7 29 -3 18 -4 18 -11 1z"/>
<path d="M3445 6107 c-4 -10 -5 -21 -1 -24 10 -10 18 4 13 24 -4 17 -4 17 -12
0z"/>
<path d="M4436 5765 c-11 -8 -28 -15 -38 -15 -32 0 -81 -31 -130 -83 -27 -27
-48 -57 -48 -66 0 -10 -7 -26 -15 -37 -21 -28 -21 -226 0 -244 8 -7 15 -19 15
-28 0 -20 67 -101 94 -113 11 -5 28 -13 36 -17 65 -36 86 -42 160 -42 74 0 93
5 160 42 8 4 29 14 45 22 41 18 69 51 105 121 26 52 30 69 30 144 0 103 -21
154 -91 221 -68 66 -149 101 -244 107 -43 2 -66 -1 -79 -12z m202 -118 c42
-27 96 -91 108 -129 3 -11 3 -54 -1 -94 -6 -71 -8 -75 -58 -128 -61 -64 -87
-76 -169 -76 -110 0 -204 65 -230 157 -13 48 -1 154 20 183 34 45 97 100 117
100 11 0 26 4 33 9 8 4 41 7 75 7 49 -2 71 -8 105 -29z"/>
<path d="M4730 4868 c-25 -5 -209 -12 -410 -16 l-365 -7 0 -165 0 -165 23 3
c13 1 60 6 105 11 103 12 122 4 113 -47 -3 -21 -6 -250 -6 -511 l0 -474 -128
6 -128 6 4 -128 c3 -83 0 -135 -7 -149 -7 -13 -7 -23 -2 -27 6 -3 275 -6 598
-6 l588 0 0 158 c0 152 -1 158 -20 155 -11 -2 -71 -6 -133 -9 l-112 -6 0 679
c0 374 0 685 0 692 0 14 -52 14 -120 0z m-2 -111 c6 -5 12 -17 12 -26 0 -9 6
-23 13 -32 12 -16 14 -135 8 -684 -4 -276 4 -458 21 -489 23 -44 89 -94 131
-101 55 -9 83 -28 89 -59 6 -32 2 -38 -49 -64 -30 -15 -49 -19 -65 -13 -12 4
-36 4 -54 -2 -19 -6 -42 -6 -59 0 -16 5 -62 5 -109 1 -44 -5 -189 -7 -321 -5
-213 2 -243 5 -267 21 -21 14 -28 26 -28 51 0 41 42 79 77 70 30 -7 83 24 111
65 22 33 48 107 43 125 -4 16 -1 239 4 275 3 19 5 44 5 55 -7 180 -5 383 4
394 7 9 6 16 -5 25 -10 7 -18 34 -22 74 -6 77 -44 138 -97 159 -110 45 -110
45 -110 79 0 23 7 36 25 48 31 20 158 36 345 42 79 3 146 6 148 8 7 7 138 -7
150 -17z"/>
<path d="M7170 6388 c-121 -29 -201 -84 -273 -188 -44 -62 -63 -106 -82 -193
-16 -71 -15 -78 3 -153 24 -98 62 -167 129 -236 56 -59 145 -118 175 -118 11
0 29 -5 40 -11 12 -6 65 -11 118 -11 53 0 106 5 118 11 11 6 28 11 38 11 29 0
136 72 185 124 44 47 92 136 118 217 20 64 9 208 -20 259 -5 8 -17 33 -27 56
-37 79 -173 196 -257 221 -35 11 -165 34 -176 32 -2 0 -42 -10 -89 -21z m255
-113 c39 -16 80 -35 93 -43 38 -25 115 -159 128 -226 28 -133 -36 -293 -146
-368 -30 -20 -71 -40 -90 -43 -19 -4 -50 -12 -68 -19 -27 -10 -50 -9 -127 5
-52 9 -105 24 -117 33 -13 9 -38 26 -55 37 -18 12 -33 25 -33 30 0 5 -15 26
-34 46 -47 52 -66 116 -66 218 0 73 4 93 29 145 55 114 103 155 229 201 69 25
170 18 257 -16z"/>
<path d="M1610 3596 c-58 -11 -77 -18 -130 -47 -8 -5 -28 -15 -45 -23 -40 -19
-118 -101 -145 -154 -12 -23 -26 -45 -31 -48 -5 -3 -9 -15 -9 -27 0 -12 -7
-31 -15 -41 -21 -28 -21 -223 0 -250 8 -11 15 -30 15 -42 0 -12 7 -27 15 -34
8 -7 15 -17 15 -23 0 -32 168 -187 203 -187 8 0 20 -7 27 -15 7 -8 23 -15 35
-15 12 0 39 -7 58 -15 45 -19 120 -19 172 0 22 8 49 15 61 15 11 0 29 7 40 15
10 8 24 15 31 15 41 1 213 170 213 210 0 4 6 21 14 37 8 15 22 56 32 91 15 54
16 71 5 115 -6 29 -14 63 -17 77 -14 60 -72 157 -129 215 -66 67 -162 119
-235 129 -96 14 -117 14 -180 2z m195 -111 c11 -8 40 -19 64 -25 101 -27 200
-195 201 -343 0 -57 -40 -157 -81 -205 -16 -18 -29 -37 -29 -41 0 -20 -89 -62
-210 -99 -79 -25 -241 23 -320 95 -44 39 -105 159 -114 224 -9 59 15 165 50
224 29 50 91 115 125 132 115 55 126 58 210 54 46 -2 92 -9 104 -16z"/>
<path d="M6525 2883 c-63 -19 -67 -21 -85 -32 -8 -5 -22 -12 -30 -15 -8 -4
-28 -15 -45 -26 -16 -11 -36 -23 -43 -26 -38 -19 -152 -159 -152 -187 0 -7 -5
-18 -10 -23 -17 -17 -40 -123 -40 -186 0 -131 32 -226 110 -333 73 -99 154
-153 280 -188 111 -31 149 -31 290 2 75 18 181 83 242 149 30 33 88 127 88
144 0 6 6 19 14 27 20 24 35 184 23 261 -13 89 -58 191 -112 251 -137 154
-365 232 -530 182z m268 -114 c136 -52 209 -119 254 -228 40 -99 40 -251 -2
-334 -8 -16 -15 -34 -15 -40 0 -39 -109 -152 -159 -164 -14 -3 -37 -14 -51
-23 -24 -17 -55 -24 -162 -36 -56 -7 -161 17 -229 52 -68 34 -125 98 -172 194
-41 83 -42 87 -42 186 1 90 4 107 28 154 15 28 27 56 27 61 0 5 27 38 61 73
95 100 171 132 322 135 43 1 79 -7 140 -30z"/>
<path d="M4384 1865 c-10 -8 -31 -15 -46 -15 -15 0 -29 -4 -33 -9 -3 -6 -27
-20 -53 -33 -67 -33 -173 -142 -207 -213 -46 -97 -64 -224 -45 -328 38 -211
191 -371 401 -421 75 -18 147 -20 204 -5 22 6 51 12 65 14 14 2 54 19 90 37
93 47 174 134 230 244 l44 89 0 135 c0 112 -3 140 -17 160 -9 13 -17 30 -17
38 0 18 -66 120 -104 160 -53 57 -171 132 -206 132 -9 0 -25 7 -36 15 -27 21
-242 21 -270 0z m231 -100 c62 -12 154 -65 189 -108 17 -21 42 -51 55 -65 33
-39 47 -69 61 -136 24 -115 -5 -272 -59 -320 -11 -11 -21 -25 -21 -32 0 -20
-52 -69 -104 -98 -148 -83 -260 -87 -411 -15 -66 31 -106 67 -164 146 -32 43
-40 64 -46 115 -3 35 -11 75 -17 90 -10 27 -10 29 34 181 7 21 21 48 32 61 12
13 38 43 58 68 42 51 112 92 178 103 25 4 51 11 59 15 16 9 100 6 156 -5z"/>
</g>
</svg>
